<svg width="311" height="119" viewBox="0 0 400 119" fill="none" xmlns="http://www.w3.org/2000/svg">
<path d="M178.608 25.664V53.024C174.32 54.432 170.256 55.456 166.416 56.096C162.576 56.736 159.344 57.056 156.72 57.056C148.016 57.056 141.2 54.784 136.272 50.24C131.344 45.696 128.88 38.72 128.88 29.312C128.88 19.712 131.472 12.544 136.656 7.808C141.84 3.008 149.136 0.607998 158.544 0.607998C163.472 0.607998 169.392 1.344 176.304 2.816C176.304 4.096 176.176 6.016 175.92 8.576C175.664 11.072 175.408 12.832 175.152 13.856L171.696 13.76C167.472 13.632 164.176 13.568 161.808 13.568C154.704 13.568 150.832 13.984 150.192 14.816C149.168 16.032 148.432 17.92 147.984 20.48C147.6 23.04 147.408 25.504 147.408 27.872C147.408 32.16 147.888 35.488 148.848 37.856C149.808 40.224 151.28 41.888 153.264 42.848C155.248 43.808 157.936 44.288 161.328 44.288H161.712V25.664H178.608ZM214.665 38.528V56H197.385V38.72L178.953 1.27999H196.521L203.817 19.04C204.585 20.832 205.289 22.72 205.929 24.704H206.121C206.825 22.528 207.529 20.576 208.233 18.848L215.433 1.27999H232.905L214.665 38.528ZM305.423 56H289.295L288.047 25.856C287.855 19.904 287.631 15.392 287.375 12.32H287.087C286.319 14.752 285.423 18.528 284.399 23.648L283.919 26.048L277.295 56H261.167L255.599 29.024L254.639 24.224C253.295 18.272 252.367 14.304 251.855 12.32H251.567C251.311 15.52 251.087 20.736 250.895 27.968C250.831 28.416 250.799 29.12 250.799 30.08L249.935 56H233.711L236.015 1.27999H263.471L268.175 24.896L269.327 31.232C269.839 29.248 270.319 27.04 270.767 24.608L275.183 1.27999H303.215L305.423 56ZM143.12 74.72C143.12 75.84 143.68 76.72 144.8 77.36C145.973 78 147.787 78.6933 150.24 79.44C153.173 80.4 155.573 81.3333 157.44 82.24C159.36 83.1467 161.013 84.56 162.4 86.48C163.84 88.4 164.56 90.9067 164.56 94C164.56 103.92 158.107 108.88 145.2 108.88C143.067 108.88 140.453 108.693 137.36 108.32C134.32 107.947 131.547 107.467 129.04 106.88C129.147 105.76 129.36 104.133 129.68 102C130.053 99.8133 130.4 98.1867 130.72 97.12C132.587 97.3867 135.387 97.7067 139.12 98.08C142.907 98.4533 145.76 98.64 147.68 98.64C148.8 98.64 149.467 98.56 149.68 98.4C150 98.1867 150.24 97.84 150.4 97.36C150.613 96.8267 150.72 96.3733 150.72 96C150.72 94.9333 150.213 94.1333 149.2 93.6C148.187 93.0133 146.453 92.32 144 91.52C141.067 90.6133 138.64 89.68 136.72 88.72C134.8 87.76 133.12 86.2667 131.68 84.24C130.24 82.2133 129.52 79.5467 129.52 76.24C129.52 73.8933 130.053 71.6 131.12 69.36C132.187 67.0667 133.28 65.52 134.4 64.72C135.253 64.1333 137.013 63.5733 139.68 63.04C142.347 62.5067 144.853 62.24 147.2 62.24C153.173 62.24 158.053 62.8 161.84 63.92C161.787 64.9867 161.6 66.4533 161.28 68.32C161.013 70.1867 160.72 71.8933 160.4 73.44L158.56 73.36C151.627 72.88 147.2 72.64 145.28 72.64C144.48 72.64 144.027 72.6667 143.92 72.72C143.707 72.8267 143.52 73.0667 143.36 73.44C143.2 73.8133 143.12 74.24 143.12 74.72ZM188.19 92.88C188.19 93.84 188.217 94.8533 188.27 95.92C188.323 96.9333 188.483 97.5733 188.75 97.84C189.123 98.2133 190.43 98.4 192.67 98.4L195.39 98.32C195.87 100.88 196.11 103.84 196.11 107.2C195.097 107.573 193.603 107.92 191.63 108.24C189.71 108.56 187.87 108.72 186.11 108.72C182.43 108.72 179.577 107.92 177.55 106.32C175.577 104.667 174.59 102.133 174.59 98.72V79.04H168.59V71.76L174.59 71.2L178.19 62.4L188.19 61.84V71.2H196.67V79.04H188.19V92.88ZM225.881 108L224.601 102.96C222.148 106.96 218.735 108.96 214.361 108.96C210.788 108.96 207.855 107.973 205.561 106C203.321 103.973 202.201 101.147 202.201 97.52C202.201 95.28 202.841 93.3333 204.121 91.68C205.455 89.9733 207.268 88.7733 209.561 88.08C212.548 87.2267 217.161 86.7467 223.401 86.64C223.401 83.12 223.241 81.2533 222.921 81.04C222.655 80.8267 221.801 80.72 220.361 80.72C219.455 80.72 218.201 80.7733 216.601 80.88C214.041 80.9867 210.575 81.28 206.201 81.76C205.775 78.88 205.455 75.7867 205.241 72.48C208.068 71.8933 211.028 71.4133 214.121 71.04C217.215 70.6133 219.988 70.4 222.441 70.4C226.708 70.4 229.908 71.12 232.041 72.56C234.175 73.9467 235.561 75.7867 236.201 78.08C236.841 80.3733 237.135 83.28 237.081 86.8L237.001 98.56L237.241 108H225.881ZM219.001 100C220.388 100 221.855 99.7333 223.401 99.2V93.28H222.761C218.815 93.28 216.628 93.4933 216.201 93.92C215.935 94.1867 215.721 94.5867 215.561 95.12C215.455 95.6533 215.401 96.16 215.401 96.64C215.401 97.92 215.695 98.8 216.281 99.28C216.868 99.76 217.775 100 219.001 100ZM263.418 92.88C263.418 93.84 263.445 94.8533 263.498 95.92C263.551 96.9333 263.711 97.5733 263.978 97.84C264.351 98.2133 265.658 98.4 267.898 98.4L270.618 98.32C271.098 100.88 271.338 103.84 271.338 107.2C270.325 107.573 268.831 107.92 266.858 108.24C264.938 108.56 263.098 108.72 261.338 108.72C257.658 108.72 254.805 107.92 252.778 106.32C250.805 104.667 249.818 102.133 249.818 98.72V79.04H243.818V71.76L249.818 71.2L253.418 62.4L263.418 61.84V71.2H271.898V79.04H263.418V92.88ZM308.949 95.52C308.949 100.267 307.429 103.68 304.389 105.76C301.403 107.84 297.136 108.88 291.589 108.88C287.696 108.88 283.216 108.32 278.149 107.2C278.256 106.133 278.496 104.613 278.869 102.64C279.296 100.613 279.643 99.0667 279.909 98C281.829 98.32 283.963 98.5867 286.309 98.8C288.656 98.96 290.656 99.04 292.309 99.04C293.749 99.04 294.629 98.96 294.949 98.8C295.003 98.7467 295.056 98.6133 295.109 98.4C295.216 98.1333 295.269 97.8667 295.269 97.6C295.269 96.5333 294.603 95.8133 293.269 95.44C292.843 95.3333 291.216 94.88 288.389 94.08C285.563 93.28 283.243 91.84 281.429 89.76C279.669 87.6267 278.789 84.9867 278.789 81.84C278.789 80.1867 279.163 78.3467 279.909 76.32C280.656 74.2933 281.456 73.0133 282.309 72.48C282.949 72.0533 284.496 71.6267 286.949 71.2C289.403 70.72 291.669 70.48 293.749 70.48C298.176 70.48 302.629 70.8 307.109 71.44C307.109 72.4 306.976 74.0267 306.709 76.32C306.443 78.56 306.203 79.9733 305.989 80.56C301.456 79.9733 297.803 79.68 295.029 79.68C293.589 79.68 292.656 79.76 292.229 79.92C292.123 79.9733 292.016 80.1333 291.909 80.4C291.803 80.6133 291.749 80.9067 291.749 81.28C291.749 82.0267 291.989 82.56 292.469 82.88C292.949 83.2533 294.203 83.7067 296.229 84.24C298.629 84.9333 300.683 85.6533 302.389 86.4C304.149 87.1467 305.669 88.2667 306.949 89.76C308.283 91.2533 308.949 93.1733 308.949 95.52Z" fill="white"/>
<path fill-rule="evenodd" clip-rule="evenodd" d="M0.228206 96.1161C0.0735161 97.4991 0 98.2535 0 98.2535C40.658 125.969 89.7187 116.279 105.982 105.165C109.682 102.649 112.777 99.5556 115.228 96.1161H95.9199L91.3143 88.3756L81.3164 105.179L75.9243 96.1161H0.228206ZM1.10763 88.9511H72.5915L76.3175 82.689L81.3164 91.0878L91.3143 74.2875L100.042 88.9511H119.217C125.317 74.3932 121.598 56.9751 105.982 49.735C89.041 42.1455 60.987 49.735 47.4343 70.5383H40.658V28.7152H54.2107L60.987 7.77633L27.1053 1C11.3529 22.4758 3.73795 69.0633 1.10763 88.9511Z" fill="white"/>
</svg>
