<svg width="36" height="36" viewBox="0 0 36 36" fill="none" xmlns="http://www.w3.org/2000/svg">
<path fill-rule="evenodd" clip-rule="evenodd" d="M8 0C2 8.18 0 30.68 0 30.68C12 38.86 26.48 36 31.28 32.72C37.28 28.64 37.88 19.42 31.28 16.36C26.28 14.12 18 16.36 14 22.5H12V8.18H16L18 2L8 0ZM27.4561 23.95C27.6888 23.7709 27.9519 23.6353 28.2327 23.5496C29.5298 23.1638 30.8846 23.8975 31.2703 25.1946C31.6561 26.4917 30.9224 27.8464 29.6253 28.2322C28.3282 28.6179 26.9735 27.8842 26.5877 26.5872C26.5531 26.4615 26.5286 26.3333 26.5145 26.2038L23.0227 24.741C22.676 25.0757 22.255 25.3236 21.7941 25.4644C21.5038 25.5507 21.2123 25.5775 20.9236 25.5793L18.7118 30.6228C18.8731 30.8437 19.0069 31.088 19.0894 31.3655C19.4752 32.6626 18.7415 34.0173 17.4444 34.4031C16.1473 34.7888 14.7926 34.0552 14.4068 32.7581C14.3499 32.5547 14.3196 32.3449 14.3167 32.1338L10.424 30.0257C10.2474 30.1343 10.06 30.2282 9.85042 30.2906C8.55334 30.6763 7.19857 29.9426 6.81282 28.6455C6.42707 27.3485 7.16075 25.9937 8.45783 25.6079C9.75492 25.2222 11.1097 25.9559 11.4954 27.253C11.5578 27.4625 11.5815 27.6708 11.5855 27.8773L15.4782 29.9854C15.6549 29.8768 15.8423 29.7828 16.0518 29.7205C16.1909 29.6806 16.3333 29.6532 16.4773 29.6386L18.6858 24.6011C18.3805 24.2688 18.135 23.8717 17.9971 23.4081C17.5146 21.7856 18.4309 20.0936 20.0534 19.6111C21.6759 19.1286 23.3679 20.0448 23.8504 21.6674C23.9319 21.9413 23.96 22.2158 23.9654 22.4869L27.4561 23.95Z" fill="black"/>
</svg>
