<svg width="184" height="165" viewBox="0 0 194 175" fill="none" xmlns="http://www.w3.org/2000/svg">
<path d="M7.07784 8.22403C9.02437 6.25825 11.3401 4.69644 13.8921 3.62833C16.444 2.56023 19.1819 2.00687 21.9483 2.00006C24.7148 1.99325 27.4553 2.53312 30.0125 3.58865C32.5696 4.64419 34.8931 6.19458 36.8492 8.15076C38.8054 10.1069 40.3558 12.4304 41.4113 14.9875C42.4669 17.5447 43.0067 20.2852 42.9999 23.0517C42.9931 25.8181 42.4398 28.556 41.3717 31.1079C40.3036 33.6599 38.7418 35.9756 36.776 37.9222C34.8294 39.8879 32.5137 41.4498 29.9617 42.5179C27.4098 43.586 24.6719 44.1393 21.9055 44.1461C19.139 44.1529 16.3985 43.6131 13.8413 42.5575C11.2842 41.502 8.96075 39.9516 7.00457 37.9954C5.04839 36.0393 3.498 33.7158 2.44246 31.1587C1.38693 28.6015 0.847064 25.861 0.853873 23.0945C0.860682 20.3281 1.41403 17.5902 2.48214 15.0383C3.55024 12.4863 5.11205 10.1706 7.07784 8.22403ZM19.1144 20.6356C19.6336 20.6356 20.1411 20.4816 20.5728 20.1932C21.0045 19.9048 21.3409 19.4948 21.5396 19.0151C21.7383 18.5355 21.7903 18.0077 21.689 17.4985C21.5877 16.9893 21.3377 16.5216 20.9706 16.1544C20.6034 15.7873 20.1357 15.5373 19.6265 15.436C19.1173 15.3347 18.5895 15.3867 18.1099 15.5854C17.6302 15.7841 17.2202 16.1205 16.9318 16.5522C16.6434 16.9839 16.4894 17.4914 16.4894 18.0106C16.4894 18.7068 16.766 19.3745 17.2582 19.8668C17.7505 20.359 18.4182 20.6356 19.1144 20.6356ZM18.3644 13.5106C18.8836 13.5106 19.3911 13.3566 19.8228 13.0682C20.2545 12.7798 20.5909 12.3698 20.7896 11.8901C20.9883 11.4105 21.0403 10.8827 20.939 10.3735C20.8377 9.86428 20.5877 9.39655 20.2206 9.02944C19.8534 8.66233 19.3857 8.41232 18.8765 8.31103C18.3673 8.20975 17.8395 8.26173 17.3599 8.46041C16.8802 8.65909 16.4702 8.99554 16.1818 9.42722C15.8934 9.8589 15.7394 10.3664 15.7394 10.8856C15.7394 11.5818 16.016 12.2495 16.5082 12.7418C17.0005 13.234 17.6682 13.5106 18.3644 13.5106ZM11.9894 17.6356C12.5086 17.6356 13.0161 17.4816 13.4478 17.1932C13.8795 16.9048 14.2159 16.4948 14.4146 16.0151C14.6133 15.5355 14.6653 15.0077 14.564 14.4985C14.4627 13.9893 14.2127 13.5216 13.8456 13.1544C13.4784 12.7873 13.0107 12.5373 12.5015 12.436C11.9923 12.3347 11.4645 12.3867 10.9849 12.5854C10.5052 12.7841 10.0952 13.1205 9.8068 13.5522C9.51836 13.9839 9.3644 14.4914 9.3644 15.0106C9.3644 15.7068 9.64097 16.3745 10.1332 16.8668C10.6255 17.359 11.2932 17.6356 11.9894 17.6356Z" fill="white"/>
<path fill-rule="evenodd" clip-rule="evenodd" d="M179.43 64.8126C182.407 68.907 184.008 73.8413 184 78.904C184.008 83.9667 182.407 88.901 179.43 92.9954C177.18 91.4818 175.364 89.4079 174.16 86.9783C172.902 84.4733 172.252 81.7071 172.264 78.904C172.258 76.1015 172.907 73.3364 174.16 70.8297C175.364 68.4001 177.18 66.3262 179.43 64.8126ZM176.598 61.5657C173.941 63.4587 171.791 65.9761 170.337 68.896C168.784 71.9646 167.978 75.4103 167.978 78.904C167.973 82.3794 168.781 85.8079 170.337 88.9154C171.792 91.8341 173.942 94.3503 176.598 96.2423C172.667 100.012 167.568 102.328 162.143 102.808V55C167.731 55.4937 172.771 57.904 176.598 61.5657ZM157.857 102.811C152.432 102.33 147.333 100.013 143.402 96.2423C146.059 94.3493 148.209 91.8319 149.663 88.912C151.218 85.8055 152.026 82.3783 152.022 78.904C152.022 75.4069 151.216 71.9646 149.663 68.8926C148.209 65.9743 146.06 63.4581 143.406 61.5657C147.335 57.7975 152.431 55.4815 157.854 55V102.808L157.857 102.811ZM136 78.904C135.992 83.9667 137.593 88.901 140.57 92.9954C142.82 91.4818 144.636 89.4079 145.84 86.9783C147.098 84.4733 147.747 81.7071 147.736 78.904C147.736 76.0651 147.081 73.2811 145.84 70.8297C144.636 68.4001 142.82 66.3262 140.57 64.8126C137.593 68.907 135.992 73.8413 136 78.904Z" fill="white"/>
<path d="M85.78 65C83.6 65 81.78 63.16 81.78 61C81.78 59.9391 82.2014 58.9217 82.9516 58.1716C83.7017 57.4214 84.7191 57 85.78 57C88 57 89.78 58.76 89.78 61C89.78 63.16 88 65 85.78 65ZM93 92.76L91 84L86.78 88V100H82.78V85L87 81L85.78 75C84.4096 76.5703 82.7189 77.8289 80.8215 78.6914C78.9242 79.5538 76.8642 80 74.78 80V76C78.6 76 81.78 74 83.4 71.16L85.4 68C86.2 66.76 87.4 66 88.78 66C89.4 66 89.78 66.16 90.4 66.16L100.78 70.56V80H96.78V73.16L93.2 71.76L96.4 88L106.2 86L107 90L93 92.76Z" fill="white"/>
<path d="M98.1136 41.7199C97.9409 41.9071 97.8491 42.1549 97.8581 42.4095C97.8671 42.664 97.9761 42.9047 98.1616 43.0793L100.247 45.029C100.433 45.2018 100.68 45.2936 100.934 45.2845C101.188 45.2753 101.428 45.1658 101.601 44.9801L113.744 31.8934C113.917 31.706 114.009 31.4581 113.999 31.2036C113.99 30.9491 113.881 30.7084 113.695 30.534L111.607 28.5871C111.421 28.4144 111.174 28.3225 110.92 28.3317C110.666 28.3409 110.426 28.4503 110.253 28.6361L98.1136 41.7199ZM82.6192 17.0959C82.4466 17.2833 82.355 17.5311 82.3642 17.7857C82.3733 18.0402 82.4826 18.2808 82.6682 18.4553L95.7914 30.7145C95.9777 30.8872 96.2249 30.9791 96.4788 30.9699C96.7327 30.9607 96.9726 30.8513 97.1459 30.6655L100.278 27.2854C100.451 27.098 100.543 26.8501 100.533 26.5956C100.524 26.3411 100.415 26.1004 100.229 25.926L87.1091 13.6668C87.0171 13.5811 86.909 13.5143 86.7911 13.4704C86.6733 13.4264 86.5479 13.4061 86.4222 13.4107C86.2965 13.4152 86.1729 13.4445 86.0585 13.4969C85.9441 13.5492 85.8411 13.6236 85.7555 13.7158L82.6192 17.0959ZM93.6486 37.5468C93.2896 37.9337 93.3117 38.5452 93.6976 38.9062L95.7856 40.855C95.9719 41.0277 96.2191 41.1196 96.473 41.1104C96.7269 41.1012 96.9668 40.9917 97.1402 40.806L109.276 27.7193C109.449 27.5321 109.541 27.2843 109.532 27.0297C109.523 26.7752 109.414 26.5345 109.228 26.3599L107.144 24.4121C106.958 24.2393 106.711 24.1475 106.457 24.1567C106.203 24.1658 105.963 24.2753 105.79 24.461L93.6486 37.5468ZM73.4282 17.5654C73.2557 17.7528 73.1642 18.0008 73.1736 18.2553C73.1829 18.5098 73.2924 18.7504 73.4781 18.9247L75.5651 20.8735C75.7514 21.0467 75.9987 21.1389 76.2528 21.1299C76.507 21.1209 76.7471 21.0114 76.9207 20.8255L89.0589 7.74168C89.2318 7.55457 89.3238 7.30672 89.3148 7.05211C89.3058 6.7975 89.1966 6.55676 89.0109 6.38232L86.9181 4.42872C86.826 4.34297 86.718 4.27622 86.6001 4.23227C86.4822 4.18832 86.3569 4.16804 86.2311 4.17259C86.1054 4.17714 85.9818 4.20642 85.8674 4.25877C85.753 4.31112 85.6501 4.38551 85.5645 4.47768L73.4282 17.5654ZM68.9699 13.399C68.7978 13.5867 68.7064 13.8346 68.7156 14.0892C68.7247 14.3437 68.8337 14.5844 69.0189 14.7593L71.1021 16.7071C71.1941 16.7929 71.3021 16.8597 71.4199 16.9038C71.5378 16.9478 71.6631 16.9682 71.7888 16.9637C71.9146 16.9593 72.0382 16.9301 72.1526 16.8778C72.267 16.8255 72.37 16.7512 72.4557 16.6591L84.592 3.56952C84.7643 3.38191 84.8558 3.13406 84.8468 2.87952C84.8378 2.62498 84.7291 2.38419 84.544 2.2092L82.4589 0.257516C82.367 0.171625 82.2591 0.104716 82.1414 0.0606285C82.0236 0.0165406 81.8983 -0.00385878 81.7726 0.00060089C81.6469 0.00506056 81.5234 0.0342915 81.409 0.0866164C81.2947 0.138941 81.1918 0.21333 81.1062 0.305516L68.9699 13.399Z" fill="white"/>
<path d="M42 152.66C37.56 150.66 33.12 148.66 28.66 148.66C24.22 148.66 19.78 152.66 15.34 152.66C10.88 152.66 6.44 148.66 2 148.66V154.66C6.44 154.66 10.88 158.66 15.34 158.66C19.78 158.66 24.22 154.66 28.66 154.66C33.12 154.66 37.56 156.66 42 158.66V152.66ZM28.66 142.66C30.22 142.66 31.76 142.9 33.3 143.3L23.46 136.42L25.54 133.94C25.82 133.6 26 133.14 26 132.66C26 131.98 25.66 131.36 25.12 131L13.68 123L11.38 126.26L21.06 133.04L10.6 145.5C12.18 146.16 13.76 146.66 15.34 146.66C19.78 146.66 24.22 142.66 28.66 142.66ZM10 130.66C8.93913 130.66 7.92172 131.081 7.17157 131.832C6.42143 132.582 6 133.599 6 134.66C6 135.721 6.42143 136.738 7.17157 137.488C7.92172 138.239 8.93913 138.66 10 138.66C11.0609 138.66 12.0783 138.239 12.8284 137.488C13.5786 136.738 14 135.721 14 134.66C14 133.599 13.5786 132.582 12.8284 131.832C12.0783 131.081 11.0609 130.66 10 130.66Z" fill="white"/>
<path d="M68.5 141.25C68.5 154.091 78.9093 164.5 91.75 164.5C104.591 164.5 115 154.091 115 141.25C115 128.409 104.591 118 91.75 118C78.9093 118 68.5 128.409 68.5 141.25ZM73 141.25L73.0003 141.224L75.4438 143.356L81.3199 137.871L79.7774 129.963L76.5615 130.251C78.8948 127.043 82.1868 124.618 86.0029 123.394L84.7232 126.388L91.75 130.281L98.7768 126.388L97.4971 123.394C101.306 124.615 104.601 127.038 106.939 130.251L103.698 129.963L102.18 137.871L108.056 143.356L110.5 141.224L110.5 141.25C110.5 145.283 109.235 149.12 106.893 152.312L106.171 149.134L98.1892 150.113L94.786 157.409L97.5893 159.077C93.8204 160.307 89.6871 160.309 85.9107 159.077L88.714 157.409L85.3108 150.113L77.3291 149.134L76.6068 152.312C74.2653 149.12 73 145.283 73 141.25ZM96.2596 147.772L99.0621 139.212L91.75 133.912L84.4379 139.212L87.2149 147.772H96.2596Z" fill="white"/>
<path d="M168.4 164C168.8 164 169.15 163.85 169.45 163.55C169.75 163.25 169.9 162.9 169.9 162.5C169.9 162.1 169.75 161.75 169.45 161.45C169.15 161.15 168.8 161 168.4 161C168 161 167.65 161.15 167.35 161.45C167.05 161.75 166.9 162.1 166.9 162.5C166.9 162.9 167.05 163.25 167.35 163.55C167.65 163.85 168 164 168.4 164ZM151.4 164C151.8 164 152.15 163.85 152.45 163.55C152.75 163.25 152.9 162.9 152.9 162.5C152.9 162.1 152.75 161.75 152.45 161.45C152.15 161.15 151.8 161 151.4 161C151 161 150.65 161.15 150.35 161.45C150.05 161.75 149.9 162.1 149.9 162.5C149.9 162.9 150.05 163.25 150.35 163.55C150.65 163.85 151 164 151.4 164ZM169.4 160C170.9 160 172.283 159.675 173.55 159.024C174.817 158.373 175.867 157.499 176.7 156.4C176.8 156.233 176.875 156.083 176.924 155.95C176.973 155.817 176.999 155.667 177 155.5C177 155.1 176.867 154.75 176.6 154.45C176.333 154.15 175.967 154 175.5 154C175.233 154 175.008 154.05 174.824 154.15C174.64 154.25 174.465 154.4 174.3 154.6C173.9 155.167 173.391 155.642 172.774 156.026C172.157 156.41 171.499 156.685 170.8 156.85L164.55 149.3L167.2 141C167.367 140.433 167.417 139.867 167.35 139.3C167.283 138.733 167.1 138.2 166.8 137.7L162 130H166.7L170.5 136.1L173.9 134L168.9 126H157.5C156.6 126 155.875 126.25 155.324 126.75C154.773 127.25 154.399 127.717 154.2 128.15L153.15 130.55C152.483 132.15 151.408 133.458 149.924 134.474C148.44 135.49 146.765 135.999 144.9 136V140C147.233 140 149.367 139.442 151.3 138.326C153.233 137.21 154.783 135.735 155.95 133.9L159.55 139.65L150.9 145V157H150.3C149.333 157 148.433 156.783 147.6 156.35C146.767 155.917 146.067 155.333 145.5 154.6C145.333 154.4 145.158 154.25 144.974 154.15C144.79 154.05 144.565 154 144.3 154C143.867 154 143.508 154.15 143.224 154.45C142.94 154.75 142.799 155.1 142.8 155.5C142.8 155.667 142.825 155.817 142.876 155.95C142.927 156.083 143.001 156.233 143.1 156.4C143.933 157.5 144.967 158.375 146.2 159.026C147.433 159.677 148.8 160.001 150.3 160H169.4ZM165.7 157H154.9V147.8L161.9 143.4L159.9 150L165.7 157ZM152.9 126C154 126 154.942 125.609 155.726 124.826C156.51 124.043 156.901 123.101 156.9 122C156.899 120.899 156.507 119.957 155.724 119.176C154.941 118.395 154 118.003 152.9 118C151.8 117.997 150.858 118.389 150.074 119.176C149.29 119.963 148.899 120.904 148.9 122C148.901 123.096 149.293 124.038 150.074 124.826C150.855 125.614 151.797 126.005 152.9 126Z" fill="white"/>
<path d="M4.1 89C4.6 92.38 7.48 95 11 95H14V91H8C8.14 88.44 7.48 83.08 8.94 80.9C10.88 76.8 16.34 76.12 20.14 75.1C22 75 24 73 24.32 71H30C30.56 71 31 70.56 31 70C31 69.44 30.56 69 30 69H25V67H30C30.56 67 31 66.56 31 66C31 65.44 30.56 65 30 65H25V59H41.94V91H36V95H44V99H11C5.28 99 0.56 94.6 0 89H4.1ZM18 95H32V91H18V95Z" fill="white"/>
<path d="M152.177 34.8931C151.837 34.6939 151.51 34.4748 151.197 34.2371C150.501 33.7338 149.847 33.1753 149.241 32.5671C146.981 30.314 145.442 27.4394 144.821 24.3091C143.824 24.0799 142.885 23.6494 142.061 23.044C141.237 22.4385 140.545 21.671 140.028 20.7885C139.511 19.9061 139.181 18.9272 139.056 17.9122C138.931 16.8972 139.015 15.8675 139.303 14.8862C139.591 13.9049 140.077 12.9928 140.73 12.206C141.383 11.4192 142.19 10.7742 143.102 10.3107C144.013 9.84722 145.01 9.57498 146.031 9.51073C147.051 9.44647 148.074 9.59156 149.037 9.93708L149.241 9.73108C150.893 8.07794 152.885 6.80334 155.079 5.99534C157.272 5.18734 159.615 4.86521 161.945 5.0512C164.275 5.23718 166.537 5.92686 168.575 7.07257C170.613 8.21828 172.377 9.79271 173.747 11.6871C173.991 12.0211 174.211 12.3251 174.403 12.6671C175.979 15.2286 176.811 18.1789 176.804 21.1868C176.797 24.1946 175.951 27.141 174.363 29.6951L179.443 34.7751C179.781 35.1136 180.05 35.5156 180.233 35.9579C180.417 36.4003 180.511 36.8745 180.511 37.3534C180.511 37.8322 180.417 38.3064 180.234 38.7489C180.051 39.1914 179.782 39.5934 179.444 39.9321C179.105 40.2708 178.703 40.5394 178.261 40.7228C177.818 40.9061 177.344 41.0005 176.865 41.0006C176.387 41.0007 175.912 40.9065 175.47 40.7233C175.027 40.5401 174.625 40.2716 174.287 39.9331L169.207 34.8531C166.652 36.4423 163.706 37.2878 160.697 37.2949C157.689 37.302 154.738 36.4702 152.177 34.8931ZM172.649 20.2071L159.717 33.1391C159.397 33.4611 159.097 33.7631 158.789 34.0371C161.587 34.4427 164.442 33.9275 166.923 32.5691L166.921 32.5671C166.24 31.8815 165.859 30.9549 165.859 29.9891C165.859 29.0233 166.24 28.0966 166.921 27.4111C167.604 26.7274 168.532 26.3433 169.499 26.3433C170.466 26.3433 171.393 26.7274 172.077 27.4111C173.435 24.9312 173.952 22.0772 173.547 19.2791C173.273 19.5851 172.973 19.8851 172.649 20.2071ZM168.977 29.9871C168.977 30.0559 168.99 30.124 169.017 30.1875C169.043 30.251 169.082 30.3087 169.131 30.3571L176.497 37.7231C176.545 37.7714 176.602 37.8097 176.666 37.8359C176.729 37.862 176.796 37.8755 176.865 37.8755C176.933 37.8755 177.001 37.862 177.064 37.8359C177.127 37.8097 177.184 37.7714 177.233 37.7231C177.281 37.6747 177.319 37.6174 177.346 37.5542C177.372 37.4911 177.385 37.4234 177.385 37.3551C177.385 37.2867 177.372 37.2191 177.346 37.1559C177.319 37.0928 177.281 37.0354 177.233 36.9871L171.245 30.9971L171.235 30.9891L169.867 29.6211C169.794 29.5475 169.701 29.4973 169.6 29.4768C169.499 29.4563 169.394 29.4664 169.298 29.5059C169.202 29.5454 169.121 29.6125 169.064 29.6985C169.006 29.7846 168.976 29.8857 168.977 29.9891M142.011 17.0011C142.011 18.1945 142.485 19.3391 143.329 20.1831C144.173 21.027 145.317 21.5011 146.511 21.5011C147.704 21.5011 148.849 21.027 149.693 20.1831C150.537 19.3391 151.011 18.1945 151.011 17.0011C151.011 15.8076 150.537 14.663 149.693 13.8191C148.849 12.9752 147.704 12.5011 146.511 12.5011C145.317 12.5011 144.173 12.9752 143.329 13.8191C142.485 14.663 142.011 15.8076 142.011 17.0011Z" fill="white"/>
</svg>
